<?xml version="1.0" encoding="UTF-8"?><svg id="a" xmlns="http://www.w3.org/2000/svg" viewBox="0 0 502.7 63.41"><defs><style>.b{fill:#fff;}</style></defs><polygon class="b" points="15.29 50.29 15.29 .92 .91 .92 .91 50.29 .91 62.54 49.41 62.54 49.41 50.29 15.29 50.29"/><path class="b" d="M281.03,25.92c-1.12-2.5-3.37-3.62-6.62-3.62s-6.37,1.25-7.62,3.62c-.75,1.37-1.12,3.5-1.12,6.25v30.5h-13.5V19.42h12.87c1.62-2.62,3.25-4.5,4.62-5.62,2.62-2,5.87-3,10-3s7,.87,9.5,2.5c1.87,1.62,3.37,3.62,4.37,6.12,1.75-3,3.87-5.12,6.5-6.5,2.75-1.37,5.75-2.12,9.12-2.12s4.5.37,6.62,1.25c2.12.87,4.12,2.37,5.87,4.5,1.37,1.75,2.37,3.87,2.87,6.5.37,1.75.5,4.25.5,7.5v31.87h-13.75V30.16c0-1.87-.37-3.5-.87-4.75-1.12-2.37-3.37-3.5-6.5-3.5s-6.25,1.5-7.62,4.5c-.75,1.62-1.12,3.5-1.12,5.75v30.12h-13.37v-30.12c0-3-.37-5.12-.87-6.5h0v.25h.13Z"/><path class="b" d="M376.27,47.66c-.37,3-1.87,6-4.75,9.12-4.37,4.87-10.5,7.37-18.25,7.37s-12.25-2.12-17.12-6.25c-5-4.12-7.37-10.87-7.37-20.25s2.25-15.5,6.75-20.12,10.25-7,17.37-7,8,.75,11.5,2.37c3.37,1.62,6.25,4.12,8.37,7.5,2,3,3.25,6.5,3.87,10.5.37,2.37.5,5.62.37,10h-34.87c.25,5.12,1.75,8.62,4.87,10.75,1.87,1.25,4,1.87,6.62,1.87s5-.75,6.62-2.37c.87-.87,1.75-2,2.5-3.5h13.62-.12ZM363.15,32.16c-.25-3.5-1.25-6.12-3.25-8-1.87-1.75-4.25-2.75-7.12-2.75s-5.5,1-7.12,2.87c-1.75,1.87-2.75,4.5-3.25,7.75h20.75v.12Z"/><path class="b" d="M429.89.92v61.62h-12.87v-7c-1.87,3-4.12,5.12-6.5,6.5-2.37,1.37-5.5,2-9.12,2-6,0-11-2.37-15-7.12s-6.12-10.87-6.12-18.5,2-15.5,6-20.37c4-5,9.37-7.5,16-7.5s5.87.62,8.25,2,4.37,3.25,5.87,5.62V.79h13.5v.13ZM394.02,37.54c0,4.62.87,8.37,2.75,11.25s4.62,4.25,8.37,4.25,6.62-1.37,8.62-4.12,3-6.37,3-10.87-1.62-10.62-4.75-13.25c-1.87-1.62-4.12-2.37-6.75-2.37-3.87,0-6.75,1.5-8.62,4.37s-2.75,6.5-2.75,10.87h0l.12-.12Z"/><rect class="b" x="435.02" y=".79" width="13.5" height="12.25"/><rect class="b" x="435.02" y="18.92" width="13.5" height="43.62"/><path class="b" d="M97.04,47.66c-.37,3-1.87,6-4.75,9.12-4.37,4.87-10.5,7.37-18.25,7.37s-12.25-2.12-17.12-6.25c-5-4.12-7.37-10.87-7.37-20.25s2.25-15.5,6.75-20.12,10.25-7,17.37-7,8,.75,11.5,2.37c3.37,1.62,6.25,4.12,8.37,7.5,2,3,3.25,6.5,3.87,10.5.37,2.37.5,5.62.37,10h-34.87c.25,5.12,1.75,8.62,4.87,10.75,1.87,1.25,4,1.87,6.62,1.87s5-.75,6.62-2.37c.87-.87,1.75-2,2.5-3.5h13.62-.13ZM83.91,32.16c-.25-3.5-1.25-6.12-3.25-8-1.87-1.75-4.25-2.75-7.12-2.75s-5.5,1-7.12,2.87c-1.75,1.87-2.75,4.5-3.25,7.75h20.75v.12Z"/><path class="b" d="M498.89,59.04c-.5-.62-.75-1.75-.75-3.5v-29.12c0-6.12-2.12-10.25-6.5-12.5s-9.25-3.25-14.87-3.25c-8.62,0-14.62,2.25-18.12,6.75-2.25,2.87-3.5,6.5-3.75,10.87h12.87c.37-2,.87-3.5,1.87-4.62,1.25-1.5,3.5-2.37,6.62-2.37s4.87.37,6.37,1.12,2.12,2.25,2.12,4.25-1,3-2.87,3.75c-1,.5-2.87.87-5.25,1.12l-4.5.62c-5.12.62-9,1.75-11.62,3.25-4.87,2.75-7.25,7.25-7.25,13.5s1.5,8.5,4.5,11.12c3,2.62,6.75,3.87,11.37,3.87s6.87-.87,9.75-2.5c2.37-1.37,4.5-3.12,6.37-5.12,0,1.12.25,2.12.37,3.12.13.87.5,1.87.87,2.87h14.5v-2c-.87-.37-1.5-.87-2-1.5h0v.25h-.13ZM484.64,42.91c0,4.37-1.37,7.5-3.75,9.12s-5,2.5-7.87,2.5-3.37-.5-4.62-1.5-1.87-2.62-1.87-4.87,1-4.37,3.12-5.62c1.25-.75,3.25-1.37,6-1.75l3-.62c1.5-.25,2.62-.62,3.5-.87.87-.37,1.75-.75,2.5-1.25v4.87h0Z"/><path class="b" d="M103.78,17.42c3.5-4.5,9.5-6.75,18.12-6.75s10.5,1.12,14.87,3.25c4.37,2.25,6.5,6.37,6.5,12.5v29.12c0,1.75.37,2.87.75,3.5.5.62,1.12,1.12,2,1.5v2h-14.5c-.37-1-.75-2-.87-2.87-.13-.87-.25-1.87-.37-3.12-1.87,2-4,3.62-6.37,5.12-2.87,1.62-6.12,2.5-9.75,2.5s-8.37-1.25-11.37-3.87c-3-2.62-4.5-6.37-4.5-11.12s2.37-10.75,7.25-13.5c2.62-1.5,6.5-2.62,11.62-3.25l4.5-.62c2.5-.25,4.25-.75,5.25-1.12,1.87-.75,2.87-2,2.87-3.75s-.75-3.5-2.12-4.25c-1.5-.75-3.62-1.12-6.37-1.12s-5.37.75-6.62,2.37c-.87,1.12-1.5,2.75-1.87,4.62h-12.87c.25-4.37,1.5-8.12,3.75-10.87h0v-.25h.13ZM113.78,53.04c1.25,1,2.75,1.5,4.62,1.5,2.87,0,5.5-.87,7.87-2.5,2.37-1.62,3.62-4.75,3.75-9.12v-4.87c-.87.5-1.75,1-2.5,1.25-.87.37-2,.62-3.5.87l-3,.62c-2.75.5-4.87,1.12-6,1.75-2,1.25-3.12,3.12-3.12,5.62s.62,3.87,1.87,4.87h0Z"/><path class="b" d="M196.66.92v61.62h-13v-7c-1.87,3-4,5.12-6.5,6.5-2.37,1.37-5.5,2-9.12,2-6,0-11-2.37-15-7.12s-6.12-10.87-6.12-18.5,2-15.5,6-20.37c4-5,9.37-7.5,16-7.5s5.87.62,8.25,2c2.37,1.37,4.37,3.25,5.87,5.62V.79h13.62v.13ZM160.78,37.54c0,4.62.87,8.37,2.75,11.25s4.62,4.25,8.37,4.25,6.62-1.37,8.62-4.12c2-2.75,3-6.37,3-10.87s-1.62-10.62-4.75-13.25c-1.87-1.62-4.12-2.37-6.75-2.37-3.87,0-6.75,1.5-8.62,4.37s-2.75,6.5-2.75,10.87h.13v-.12Z"/><path class="b" d="M239.15,14.29c4,2.5,6.25,6.87,6.87,13.12h-13.37c-.25-1.75-.62-3-1.5-4-1.5-1.75-4-2.75-7.5-2.75s-5,.5-6.25,1.37-1.87,2-1.87,3.12.62,2.62,2,3.25c1.25.75,5.87,1.87,13.87,3.62,5.25,1.25,9.25,3.12,11.87,5.62s3.87,5.75,3.87,9.5-1.87,9.12-5.62,12.25-9.5,4.75-17.37,4.75-13.87-1.62-17.75-5c-3.75-3.37-5.75-7.62-5.75-12.87h13.5c.25,2.37.87,4,1.87,5,1.62,1.75,4.75,2.62,9.12,2.62s4.75-.37,6.25-1.12c1.5-.75,2.25-1.87,2.25-3.5s-.62-2.62-1.87-3.37c-1.25-.75-5.87-2.12-13.87-4-5.75-1.37-9.87-3.25-12.25-5.37-2.37-2.12-3.5-5.12-3.5-9.12s1.87-8.75,5.5-12.12c3.75-3.37,8.87-5,15.62-5s11.5,1.25,15.5,3.75h0l.37.25h0Z"/><rect class="b" x="252.15" y=".79" width="13" height="12.12"/></svg>