<?xml version="1.0" encoding="UTF-8"?>
<svg id="Layer_1" xmlns="http://www.w3.org/2000/svg" xmlns:xmpTPg="http://ns.adobe.com/xap/1.0/t/pg/" xmlns:xmpRights="http://ns.adobe.com/xap/1.0/rights/" xmlns:xmpMM="http://ns.adobe.com/xap/1.0/mm/" xmlns:xmpGImg="http://ns.adobe.com/xap/1.0/g/img/" xmlns:xmpG="http://ns.adobe.com/xap/1.0/g/" xmlns:xmpDM="http://ns.adobe.com/xmp/1.0/DynamicMedia/" xmlns:xmp="http://ns.adobe.com/xap/1.0/" xmlns:xlink="http://www.w3.org/1999/xlink" xmlns:x="adobe:ns:meta/" xmlns:stRef="http://ns.adobe.com/xap/1.0/sType/ResourceRef#" xmlns:stEvt="http://ns.adobe.com/xap/1.0/sType/ResourceEvent#" xmlns:stDim="http://ns.adobe.com/xap/1.0/sType/Dimensions#" xmlns:rdf="http://www.w3.org/1999/02/22-rdf-syntax-ns#" xmlns:plus="http://ns.useplus.org/ldf/xmp/1.0/" xmlns:photoshop="http://ns.adobe.com/photoshop/1.0/" xmlns:pdf="http://ns.adobe.com/pdf/1.3/" xmlns:illustrator="http://ns.adobe.com/illustrator/1.0/" xmlns:dc="http://purl.org/dc/elements/1.1/" xmlns:Iptc4xmpExt="http://iptc.org/std/Iptc4xmpExt/2008-02-29/" xmlns:Iptc4xmpCore="http://iptc.org/std/Iptc4xmpCore/1.0/xmlns/" version="1.1" viewBox="0 0 500 250">
  <!-- Generator: Adobe Illustrator 29.2.1, SVG Export Plug-In . SVG Version: 2.1.0 Build 116)  -->
  <defs>
    <style>
      .st0 {
        fill: #242833;
      }

      .st1 {
        fill: #fff;
      }
    </style>
  </defs>
  <rect class="st1" width="500" height="250"/>
  <g>
    <polygon class="st0" points="61.5 139.2 61.5 99.7 50 99.7 50 139.2 50 149 88.8 149 88.8 139.2 61.5 139.2"/>
    <path class="st0" d="M274.1,119.7c-.9-2-2.7-2.9-5.3-2.9s-5.1,1-6.1,2.9c-.6,1.1-.9,2.8-.9,5v24.4h-10.8v-34.6h10.3c1.3-2.1,2.6-3.6,3.7-4.5,2.1-1.6,4.7-2.4,8-2.4s5.6.7,7.6,2c1.5,1.3,2.7,2.9,3.5,4.9,1.4-2.4,3.1-4.1,5.2-5.2,2.2-1.1,4.6-1.7,7.3-1.7s3.6.3,5.3,1c1.7.7,3.3,1.9,4.7,3.6,1.1,1.4,1.9,3.1,2.3,5.2.3,1.4.4,3.4.4,6v25.5h-11v-25.8c0-1.5-.3-2.8-.7-3.8-.9-1.9-2.7-2.8-5.2-2.8s-5,1.2-6.1,3.6c-.6,1.3-.9,2.8-.9,4.6v24.1h-10.7v-24.1c0-2.4-.3-4.1-.7-5.2h0v.2h.1Z"/>
    <path class="st0" d="M350.3,137.1c-.3,2.4-1.5,4.8-3.8,7.3-3.5,3.9-8.4,5.9-14.6,5.9s-9.8-1.7-13.7-5c-4-3.3-5.9-8.7-5.9-16.2s1.8-12.4,5.4-16.1,8.2-5.6,13.9-5.6,6.4.6,9.2,1.9c2.7,1.3,5,3.3,6.7,6,1.6,2.4,2.6,5.2,3.1,8.4.3,1.9.4,4.5.3,8h-27.9c.2,4.1,1.4,6.9,3.9,8.6,1.5,1,3.2,1.5,5.3,1.5s4-.6,5.3-1.9c.7-.7,1.4-1.6,2-2.8h10.9,0ZM339.8,124.7c-.2-2.8-1-4.9-2.6-6.4-1.5-1.4-3.4-2.2-5.7-2.2s-4.4.8-5.7,2.3c-1.4,1.5-2.2,3.6-2.6,6.2h16.6Z"/>
    <path class="st0" d="M393.2,99.7v49.3h-10.3v-5.6c-1.5,2.4-3.3,4.1-5.2,5.2-1.9,1.1-4.4,1.6-7.3,1.6-4.8,0-8.8-1.9-12-5.7s-4.9-8.7-4.9-14.8,1.6-12.4,4.8-16.3c3.2-4,7.5-6,12.8-6s4.7.5,6.6,1.6,3.5,2.6,4.7,4.5v-13.9h10.8ZM364.5,129c0,3.7.7,6.7,2.2,9s3.7,3.4,6.7,3.4,5.3-1.1,6.9-3.3,2.4-5.1,2.4-8.7-1.3-8.5-3.8-10.6c-1.5-1.3-3.3-1.9-5.4-1.9-3.1,0-5.4,1.2-6.9,3.5s-2.2,5.2-2.2,8.7h0Z"/>
    <rect class="st0" x="397.3" y="99.6" width="10.8" height="9.8"/>
    <rect class="st0" x="397.3" y="114.1" width="10.8" height="34.9"/>
    <path class="st0" d="M126.9,137.1c-.3,2.4-1.5,4.8-3.8,7.3-3.5,3.9-8.4,5.9-14.6,5.9s-9.8-1.7-13.7-5c-4-3.3-5.9-8.7-5.9-16.2s1.8-12.4,5.4-16.1,8.2-5.6,13.9-5.6,6.4.6,9.2,1.9c2.7,1.3,5,3.3,6.7,6,1.6,2.4,2.6,5.2,3.1,8.4.3,1.9.4,4.5.3,8h-27.9c.2,4.1,1.4,6.9,3.9,8.6,1.5,1,3.2,1.5,5.3,1.5s4-.6,5.3-1.9c.7-.7,1.4-1.6,2-2.8h10.9-.1ZM116.4,124.7c-.2-2.8-1-4.9-2.6-6.4-1.5-1.4-3.4-2.2-5.7-2.2s-4.4.8-5.7,2.3c-1.4,1.5-2.2,3.6-2.6,6.2h16.6,0Z"/>
    <path class="st0" d="M448.4,146.2c-.4-.5-.6-1.4-.6-2.8v-23.3c0-4.9-1.7-8.2-5.2-10s-7.4-2.6-11.9-2.6c-6.9,0-11.7,1.8-14.5,5.4-1.8,2.3-2.8,5.2-3,8.7h10.3c.3-1.6.7-2.8,1.5-3.7,1-1.2,2.8-1.9,5.3-1.9s3.9.3,5.1.9,1.7,1.8,1.7,3.4-.8,2.4-2.3,3c-.8.4-2.3.7-4.2.9l-3.6.5c-4.1.5-7.2,1.4-9.3,2.6-3.9,2.2-5.8,5.8-5.8,10.8s1.2,6.8,3.6,8.9c2.4,2.1,5.4,3.1,9.1,3.1s5.5-.7,7.8-2c1.9-1.1,3.6-2.5,5.1-4.1,0,.9.2,1.7.3,2.5.1.7.4,1.5.7,2.3h11.6v-1.6c-.7-.3-1.2-.7-1.6-1.2h0v.2h-.1ZM437,133.3c0,3.5-1.1,6-3,7.3s-4,2-6.3,2-2.7-.4-3.7-1.2-1.5-2.1-1.5-3.9.8-3.5,2.5-4.5c1-.6,2.6-1.1,4.8-1.4l2.4-.5c1.2-.2,2.1-.5,2.8-.7.7-.3,1.4-.6,2-1v3.9h0Z"/>
    <path class="st0" d="M132.3,112.9c2.8-3.6,7.6-5.4,14.5-5.4s8.4.9,11.9,2.6c3.5,1.8,5.2,5.1,5.2,10v23.3c0,1.4.3,2.3.6,2.8.4.5.9.9,1.6,1.2v1.6h-11.6c-.3-.8-.6-1.6-.7-2.3-.1-.7-.2-1.5-.3-2.5-1.5,1.6-3.2,2.9-5.1,4.1-2.3,1.3-4.9,2-7.8,2s-6.7-1-9.1-3.1c-2.4-2.1-3.6-5.1-3.6-8.9s1.9-8.6,5.8-10.8c2.1-1.2,5.2-2.1,9.3-2.6l3.6-.5c2-.2,3.4-.6,4.2-.9,1.5-.6,2.3-1.6,2.3-3s-.6-2.8-1.7-3.4c-1.2-.6-2.9-.9-5.1-.9s-4.3.6-5.3,1.9c-.7.9-1.2,2.2-1.5,3.7h-10.3c.2-3.5,1.2-6.5,3-8.7h0v-.2h.1ZM140.3,141.4c1,.8,2.2,1.2,3.7,1.2,2.3,0,4.4-.7,6.3-2,1.9-1.3,2.9-3.8,3-7.3v-3.9c-.7.4-1.4.8-2,1-.7.3-1.6.5-2.8.7l-2.4.5c-2.2.4-3.9.9-4.8,1.4-1.6,1-2.5,2.5-2.5,4.5s.5,3.1,1.5,3.9h0Z"/>
    <path class="st0" d="M206.6,99.7v49.3h-10.4v-5.6c-1.5,2.4-3.2,4.1-5.2,5.2-1.9,1.1-4.4,1.6-7.3,1.6-4.8,0-8.8-1.9-12-5.7s-4.9-8.7-4.9-14.8,1.6-12.4,4.8-16.3c3.2-4,7.5-6,12.8-6s4.7.5,6.6,1.6c1.9,1.1,3.5,2.6,4.7,4.5v-13.9h10.9,0ZM177.9,129c0,3.7.7,6.7,2.2,9s3.7,3.4,6.7,3.4,5.3-1.1,6.9-3.3c1.6-2.2,2.4-5.1,2.4-8.7s-1.3-8.5-3.8-10.6c-1.5-1.3-3.3-1.9-5.4-1.9-3.1,0-5.4,1.2-6.9,3.5s-2.2,5.2-2.2,8.7h.1Z"/>
    <path class="st0" d="M240.6,110.4c3.2,2,5,5.5,5.5,10.5h-10.7c-.2-1.4-.5-2.4-1.2-3.2-1.2-1.4-3.2-2.2-6-2.2s-4,.4-5,1.1-1.5,1.6-1.5,2.5.5,2.1,1.6,2.6c1,.6,4.7,1.5,11.1,2.9,4.2,1,7.4,2.5,9.5,4.5s3.1,4.6,3.1,7.6-1.5,7.3-4.5,9.8-7.6,3.8-13.9,3.8-11.1-1.3-14.2-4c-3-2.7-4.6-6.1-4.6-10.3h10.8c.2,1.9.7,3.2,1.5,4,1.3,1.4,3.8,2.1,7.3,2.1s3.8-.3,5-.9c1.2-.6,1.8-1.5,1.8-2.8s-.5-2.1-1.5-2.7c-1-.6-4.7-1.7-11.1-3.2-4.6-1.1-7.9-2.6-9.8-4.3-1.9-1.7-2.8-4.1-2.8-7.3s1.5-7,4.4-9.7c3-2.7,7.1-4,12.5-4s9.2,1,12.4,3h0l.3.2h0Z"/>
    <rect class="st0" x="251" y="99.6" width="10.4" height="9.7"/>
  </g>
  <metadata>
    <x:xmpmeta xmlns:x="adobe:ns:meta/">
      <rdf:RDF xmlns:rdf="http://www.w3.org/1999/02/22-rdf-syntax-ns#">
        <rdf:Description rdf:about="" xmlns:Iptc4xmpCore="http://iptc.org/std/Iptc4xmpCore/1.0/xmlns/" xmlns:Iptc4xmpExt="http://iptc.org/std/Iptc4xmpExt/2008-02-29/" xmlns:dc="http://purl.org/dc/elements/1.1/" xmlns:illustrator="http://ns.adobe.com/illustrator/1.0/" xmlns:pdf="http://ns.adobe.com/pdf/1.3/" xmlns:photoshop="http://ns.adobe.com/photoshop/1.0/" xmlns:plus="http://ns.useplus.org/ldf/xmp/1.0/" xmlns:stDim="http://ns.adobe.com/xap/1.0/sType/Dimensions#" xmlns:stEvt="http://ns.adobe.com/xap/1.0/sType/ResourceEvent#" xmlns:stRef="http://ns.adobe.com/xap/1.0/sType/ResourceRef#" xmlns:xmp="http://ns.adobe.com/xap/1.0/" xmlns:xmpDM="http://ns.adobe.com/xmp/1.0/DynamicMedia/" xmlns:xmpG="http://ns.adobe.com/xap/1.0/g/" xmlns:xmpGImg="http://ns.adobe.com/xap/1.0/g/img/" xmlns:xmpMM="http://ns.adobe.com/xap/1.0/mm/" xmlns:xmpRights="http://ns.adobe.com/xap/1.0/rights/" xmlns:xmpTPg="http://ns.adobe.com/xap/1.0/t/pg/">
          <xmp:CreateDate>2025-01-22T02:25:34+04:00
          </xmp:CreateDate>
          <xmp:CreatorTool>Adobe Illustrator 29.2 (Macintosh)
          </xmp:CreatorTool>
          <xmp:MetadataDate>2025-01-22T02:25:34+04:00
          </xmp:MetadataDate>
          <xmp:ModifyDate>2025-01-22T02:25:34+04:00
          </xmp:ModifyDate>
          <xmp:Thumbnails>
            <rdf:Alt>
              <rdf:li rdf:parseType="Resource">
                <xmpGImg:width>256
                </xmpGImg:width>
                <xmpGImg:height>128
                </xmpGImg:height>
                <xmpGImg:format>JPEG
                </xmpGImg:format>
                <xmpGImg:image>/9j/4AAQSkZJRgABAgEAAAAAAAD/7QAsUGhvdG9zaG9wIDMuMAA4QklNA+0AAAAAABAAAAAAAAEA
AQAAAAAAAQAB/+4ADkFkb2JlAGTAAAAAAf/bAIQABgQEBAUEBgUFBgkGBQYJCwgGBggLDAoKCwoK
DBAMDAwMDAwQDA4PEA8ODBMTFBQTExwbGxscHx8fHx8fHx8fHwEHBwcNDA0YEBAYGhURFRofHx8f
Hx8fHx8fHx8fHx8fHx8fHx8fHx8fHx8fHx8fHx8fHx8fHx8fHx8fHx8fHx8f/8AAEQgAgAEAAwER
AAIRAQMRAf/EAaIAAAAHAQEBAQEAAAAAAAAAAAQFAwIGAQAHCAkKCwEAAgIDAQEBAQEAAAAAAAAA
AQACAwQFBgcICQoLEAACAQMDAgQCBgcDBAIGAnMBAgMRBAAFIRIxQVEGE2EicYEUMpGhBxWxQiPB
UtHhMxZi8CRygvElQzRTkqKyY3PCNUQnk6OzNhdUZHTD0uIIJoMJChgZhJRFRqS0VtNVKBry4/PE
1OT0ZXWFlaW1xdXl9WZ2hpamtsbW5vY3R1dnd4eXp7fH1+f3OEhYaHiImKi4yNjo+Ck5SVlpeYmZ
qbnJ2en5KjpKWmp6ipqqusra6voRAAICAQIDBQUEBQYECAMDbQEAAhEDBCESMUEFURNhIgZxgZEy
obHwFMHR4SNCFVJicvEzJDRDghaSUyWiY7LCB3PSNeJEgxdUkwgJChgZJjZFGidkdFU38qOzwygp
0+PzhJSktMTU5PRldYWVpbXF1eX1RlZmdoaWprbG1ub2R1dnd4eXp7fH1+f3OEhYaHiImKi4yNjo
+DlJWWl5iZmpucnZ6fkqOkpaanqKmqq6ytrq+v/aAAwDAQACEQMRAD8A9U4q7FXYq7FXYq7FXYq7
FXYq7FXYq7FXYq7FXYq7FXYq7FXYq7FXYq7FXYq7FXYq7FXYq7FXYq7FXYq7FXYq7FXYq7FXYq7F
XYq7FXYq7FXYq7FXYq7FXYq7FXYq7FXYq7FXYq7FXYq7FXYq7FXYq7FXYq7FXYq7FXYq7FXYq7FX
Yq7FXYq7FXYq7FXYq7FXYq7FXYq7FXYq7FXYq7FXYq7FXYq7FXYq7FXYq7FXYq7FXYq7FXYq7FXY
q7FXYq7FXYq7FXYq7FXYq7FXYq7FXYq7FXYq7FXYq7FXYq7FXYq7FXYq7FXYq7FXYq7FXYq7FXYq
7FXYq7FXYq7FXYq7FXYq7FXYq7FXYq7FXYq7FXYq7FXYq7FXYq7FXYq7FXYq7FXYq7FXYq7FXYq7
FXYq7FXYq7FXYq7FXYq7FXYq7FXYq7FXYq7FXYq7FXYq7FXYq7FXYq7FXYq7FXYq7FXYq7FXYq7F
XYq7FXYq7FXYq+efNf8AzkP510j8y7ryvbWWmvp8F/HaJLJFOZjG7KCSyzqvL4v5cmI7It9DZBLs
VSzV/NHlnRmRNY1ey015BWNbu4igLD/JEjLXGlVdJ17QtYiabSNRtdRhQ0eS0mjnUHwJjZhiqKub
q2tYHuLqZILeMVkmlYIijxZmoBiqSQ/mD5CnnWCDzLpUs7HisSXtuzk+AUPXDSp+CCAQag7gjAqV
at5s8q6PKIdX1mx06ZhVY7u5hgYjxAkZTjSvOvzs/OHVfJml6HqHloWGowaq84aabnPGViCUMbQy
xjqxruclEWgllv5VebtR82+QNL8xanHDDeXvr+tHbhliHo3EkK8Q7SN9mMVq3XAQkIq5/Mn8vba6
NrceZdLiuASrRteQAqR1DfF8J+eNFU+tLy0vLdLm0njuLeQVjmiZXRh4qykg4FeE+QPz884eYvzU
g8pXtnp8emyz3kLSwxzrPxtoZZEozTOlSYhX4cmY7It7CvnfyW19+j11/TWv+XD6oLuAzcv5fT58
q/RkaSjdW13RNHgWfV9QttOgY0WW7mjgQnwDSFR3wKv03VtL1S3+s6ZeQX1tWnr20iTJWlackLDv
ireoanpum2zXWo3cNlars09xIsUY+bOQMVS/TfOnk7VLkWuma9p19ctuILa7gmkP+xR2OGlTnAqU
ap5w8o6RcC21XW7DT7giohurqGF6ePGRlOGleZ/nf+dGu+SJNEby7HYX1rqsU0rTXCyTKRGUCmNo
ZYhQ8z44YxtBLEfO3/OQ3nvSdN8sXllDYK+s6Yt9dI0MjKJTNJHRKy1C0QdScIitvefKGrz6r5P0
XWb0olxf6fa3lyV+GMPNAsj0qTRase+RKUO/5ifl/HMYX8zaSkwPExtfWwavhQvXGiqewXEFxCk1
vIs0MgqksbBlYeIYbHAq/FXYq7FXYq7FXYq+KPzF/wDJ76h/22If+Jplo5MX2vlTJiX5q+cn8n+R
NT1yABryJFislahHrzMI0JB6hOXMjuBhAtS+Xfyz/LW+/M/UtT1bXNcNpDC6/WLyaks880m/FebK
KKo3PbYAeFhNMUL5m0XzB+T3n21l0fVVuiqLc2l5F8KTRFiHhnjDMOq0ZeR2ofkjdWd/nFb/AJm/
mRd6VPoWkXc3lZ7K1urRIyPSae5iEru5JFWj9T09+lD4nIigpY/+ZH5H+XfJvlI6l/iuG61mIxq2
m8UUzM7BWWIB2ccAS1WHQdsIla0mn5QfmnrPl38qvOMkk5nOjfU10SOU8/TmvjJHxUN+whj9Tj06
+OJG6hif5Z/lb5h/NPVdSvbjUzbwwFWvtUuFa4keaWvFQpZC5opJJbbbCTS0hPzW/LzzH5AurXQ7
2+N/os5kutMmUFIy9FSb90S3CTZOQDHbjviDalk3mPzVq+l/848+SdGsZXgt9Zk1P69LGSpaO3vH
pESP2XMtSO9PDABuqF/Ln8r/AMtvNXloS33nBNM8yyGRRp8pijWMqxCfDKVaXktGqjDrTtiSVZ3+
QvkH83fJ3m1RqWnmHyxfxyLesLu2liDKhaGZY45XYksAtQvRt8EiCkMUf8yfzI85+bJ/I1ncWdiu
p3c1l9bht1ilSFWb1D6i/F/dqeVN26d8NAISH83vyVuvy7t9Ouv0quqW1+zxlvR+rtHIgDU4+pLy
BB61wiVqQyHyN+UPmf8ANjQj5j1rzI8X1UDTtNWaI3DFLZFAqecfFd6dyTVjv1BNLSSfkbq+ueWf
zas9HWZkiubmTT9UtQx9JygdakeMbiqmlfvOGXJQp6/rWu/nD+Z8dgt6LfTpp5I9NWU0htrSMFjI
VqoLsicj3ZtvDHkFTD80vyNj8kaJDr2k68upxRSxx3KUWKWNm+zKnF3qOdBTqNuvYCVrTNdC/PfW
YvyKvtQnn9TzNYXCaTbXb/EzmdecU7VFC6Rq/XqUqepwcO6bedflb+TuufmbLqOqXGp/UrSGXjPq
EyNcyzXDjmwCl4+RAILMX7jrkiaRST/mj5H8yeR9UtvLuqXn13T4le50mZaiMxzNSQqhJ9Ni0fxL
Xrv3riDalmmv/mb5s8p+UvJFlo00EcE+jLNIJreGc8/rEq7NIrEbL0wUrMfzY/5Wd5t/L3ydaaFY
3F5balplvfa49oqokkzwxskbKvEBAxZuI26eGAVaSw+6/wCcfdJ0ryJJrXmDzLHpWuratdHS5hGA
jhOSW7fH6jOdgeI6noe54kUiv+cUPMGqxecb3QhO7aXc2Ulw1qxJRZopIwJFB+ySrkGnXv0GM1D6
qytk7FXYq7FXYq7FXxP+ZDpH+empSSMERNXiZ3Y0AAZCSSctHJi+vf8AHHkr/qYNN/6TIP8AmvK6
ZPM/+cita0LWfywvItK1W0vZ7a4t7iWC2uIpX9MPwZuKFmoDICcMeaC8c/Jf8pvLX5gW9/Hea1LY
apZupSziVGLwMB+8HM1NGqDTpt45KRpACe+afyh/Jjytqn6L13zxdWt+EWVoFtHnKq1ePIwpIFJp
0JrTfviCVpivnbzPq+oappvkfSdam/wtZJa2OmvIXgSZJkQrcXKAKf8AdnRh8K9q1wgKzL8wP+cf
fK3kjyBfa5fa1Pd6vEI47OOkcEMk0kiqVEf7x2onI/b7VwCVlaef+V7G5ufyq88SQ8itpdaNPOF/
33zuo9/YNIDhPNXr3/OI/mDTRp2taA8qpqJnW8hjYgGSIxiNuPjwKb/PIzSEt/5y38w6Xc32haHb
yrLfWInnvFUg+kJhGI1anRm4E08KeOMFKnpes/laPyO8qaD55F0rXAvrmwuLRCZYmW+nQsr7iu/2
WBB8Md7Qlqf840S67odvr3krzBDqGn3iGS2ivomtpKAlShZDKCwKkbqu+HiWko/Inzn5o8ufmLYe
XDPJJpt7dNZXum8/UiVySvqR0LKpRxUsvVRjIbKEP+VX/k/7H/tpXv8AxCbCeSh6j/zl3/yjnl//
AJjJf+TWRgkst/5xr/8AJR6X/wAZrr/qIfBLmofPnleEz/n/AOiDQy61eICe3KSUZM8kMd8h+VdL
1rztb+XPMF4+kRzvJbvPRapcIDxjblt8Trw+eJKvXfNn/OPH5a+UtPTUPMPm66sbWWQRRMbcSMzk
E0VIg7nYb7bZESKaY15q8qeTrP8AKG/u/Jmsz69YprVm+oTzW8luISlvcRqB6iR8qm5WvzGEHdD0
b/nE3zBpknlPUdB9VE1O2vXuvQJAd4JY41Dgd6MhBp028cE0hhn/ADlh5g0y/wDNOk6XaTLNcaXB
L9d4EEI87rSM0/aAjqR7jDBBYT+Zv/KP+Qv+2Cv/AFEzYQrKfzY/MTzFZeU/JXlTTLqSysT5d026
vWhYxvM0sAUIzKa8FVOncnfoMAClPdH/AOccfK9r5LHmzzNrsssX1H9IvFa8IoQGi9VF9VxIz1rS
oAr2wcSaY7/zit/5M2X/ALZtx/yciwy5ID68ytk7FXYq7FXYq7FXz558/wCcZ9d8y+cNV12DWrW3
h1CczJC8chZQQBQkbdsmJIpIf+hRPMf/AFf7P/kVLh40Uyr8t/8AnG678teYZL7WdQtdT02e0ns7
myWOReaXC8SCT7YDJNJF5i/5xR1uDVTdeT9bhit+RaKO+aWKaEEdFmgSTn8+K48a0ifJn/OKl1Hq
6X/nPVIbyCN/UayszI/rsDWks0qxsFP7QC1PiMTJaTb82/8AnG+XzPrr675avLexurkILuyug6QF
kUIHjaJZCvwqKrw671xElISvTv8AnGLzNqFlcf4w8ym8uoYJItIgilnnhilK0jd3nCNwU0+BFHz7
Y8S0yb8qfyM1Xyc+s2erX9nqmh67bC3vrNY5FdinIIQxNKcZXB+jAZWoDBfMH/OJnmKPVHk8s6xa
tYFi0Ivmlhnj32XlDHKHp/N8Pyw8a0in/wCcSr5tFiU63CdceYvdzMkhgEfEgJH0ZiWNSzD6PF41
pmlx/wA4+WOo/lho/lLU75V1bRWuHs9WgjqoNzO8rIY2KlkIZaio3FcHFutPOov+cZ/zb08SWul+
YrOKxmJ5rHdXkCsKf7sjSIjf6clxBFM+/KP/AJx3t/J2rR6/rV6mo6vArC1hhUi3hZxxL8noztxJ
A+EU+fSJlaQED5P/AOceNZ0H8x7fzZNq9tNbw3U9ybZI5A5EyuAKnbb1MJlstMu/On8rb/8AMHS9
Ns7O+isWsZ3md5lZgwZONBxwRNKQnP5WeSrryX5LtPL91cpdzWzzO08QKqfVkZxQNvtywE2kPOND
/wCceNZ078zU84Pq9tJbLqMt/wDVVjkD8ZXZgtTtUc8lxbIpE/mp/wA43WPmnVJ9d0C8TTNVumMl
5bzKTbTSHrIClWjZurbNU70BrUCSkMItP+cVPPl5dwrruv2Qs4wF5wvcXMipX7KJLHCo/wCCyXGi
nvOkflp5T0zyQ3k2K19TR5o2juhJvJM7/aldh/uyoBBH2aClKDIWyeD6v/ziZ5rg1N38v61ZvY8i
YJLtpoLhVPQH0o5VJA7givgMnxsaR1z/AM4kXh0qxS31uEaqGlfUppI39JgwT0kiUb/BR6setegp
g400mvmv/nG3XNb03y5aRazbQtomnCwlZo5CJGEryclp0Hx98RJaTT8wP+ceD5l8t+XorS/itvMG
habb6Y88it9XuI7eMKOVKulG5FTQ9aEeAElpjvln/nGTzZJJb2fnDzEJfL1swddKsZ7iRXp+yPWW
JIh4lVJ+XXCZLSb/AJZf84++ZfJHnK115datLm3jEkVxB6UgZ4ZBQgGtA1aHEytae65BLsVdirsV
dirsVdirsVdirsVdirsVdirsVdirsVdirsVdirsVdirsVdirsVdirsVdirsVdirsVdirsVdirsVd
irsVdirsVdirsVdirsVdirsVdirsVdirsVdirsVdirsVdirsVdirsVdirsVdirsVdirsVdirsVdi
rsVdirsVdirsVdirsVdirsVdirsVdirsVdirsVdirsVdirsVdirsVdirsVdirsVdirsVdirsVdir
sVdirsVdirsVdirsVdirsVdirsVdirsVdirsVdirsVdirsVdirsVdirsVdirsVdirsVdirsVdirs
VdirsVdirsVdirsVdirsVdirsVdirsVdirsVdirsVdirsVdirsVdirsVdirsVdirsVdirsVdirsV
dirsVdirsVdirsVdirsVdirsVdirsVdirsVdirsVdirsVdirsVdirsVdirsVdirsVdirsVdirsVd
irsVdirsVdirsVdirsVdir//2Q==
                </xmpGImg:image>
              </rdf:li>
            </rdf:Alt>
          </xmp:Thumbnails>
          <dc:format>image/svg+xml
          </dc:format>
          <dc:description>
            <rdf:Alt>
              <rdf:li>Leadsmedia is an expert Shopify agency based in Dubai and is proven by the immense growth of its in-house brand Travelmojo®.
              </rdf:li>
            </rdf:Alt>
          </dc:description>
          <dc:creator>
            <rdf:Seq>
              <rdf:li>Leadsmedia Marketing Management LLC
              </rdf:li>
              <rdf:li>Safath Al Salam
              </rdf:li>
            </rdf:Seq>
          </dc:creator>
          <dc:title>
            <rdf:Alt>
              <rdf:li>Leadsmedia LLC - Leadsmedia.AE - Logo Brand Identity Design 2025-02
              </rdf:li>
            </rdf:Alt>
          </dc:title>
          <dc:rights>
            <rdf:Alt>
              <rdf:li>This image is protected under copyright and is the exclusive property of Leads Media Marketing Management LLC, India. All rights are reserved by Leads Media Marketing Management LLC safeguarded under DMCA 2025. Any commercial usage, reproduction, or redistribution of this image without explicit permission constitutes a legal violation. All intellectual property rights are owned solely by Leadsmedia.AE
              </rdf:li>
            </rdf:Alt>
          </dc:rights>
          <dc:subject>
            <rdf:Bag>
              <rdf:li>Shopify Agency Dubai
              </rdf:li>
              <rdf:li>Shopify Experts Dubai
              </rdf:li>
              <rdf:li>E-commerce Solutions Dubai
              </rdf:li>
              <rdf:li>Shopify Marketing Dubai
              </rdf:li>
              <rdf:li>Shopify SEO Dubai
              </rdf:li>
              <rdf:li>Shopify Store Design Dubai
              </rdf:li>
              <rdf:li>Shopify Store Setup Dubai
              </rdf:li>
              <rdf:li>Shopify Developers Dubai
              </rdf:li>
              <rdf:li>Shopify Dropshipping Dubai
              </rdf:li>
              <rdf:li>Shopify Partner Dubai
              </rdf:li>
              <rdf:li>Shopify Customization Dubai
              </rdf:li>
              <rdf:li>Shopify Optimization Services
              </rdf:li>
              <rdf:li>Shopify Growth Experts UAE
              </rdf:li>
            </rdf:Bag>
          </dc:subject>
          <photoshop:ColorMode>3
          </photoshop:ColorMode>
          <photoshop:CaptionWriter>Leadsmedia Marketing Management LLC, Safath Al Salam
          </photoshop:CaptionWriter>
          <photoshop:AuthorsPosition>Leadsmedia Dubai
          </photoshop:AuthorsPosition>
          <photoshop:Urgency>1
          </photoshop:Urgency>
          <photoshop:Instructions>If you think that the least you can do is thank to Leadsmedia for the resources you&amp;amp;apos;re using without consent, this is one way of doing it: you can include an attribution line, such as “Image Courtesy: Leadsmedia.AE ” on the final product or design, whether it’s a digital or a physical product.
          </photoshop:Instructions>
          <photoshop:Credit>Designed by Leadsmedia
          </photoshop:Credit>
          <photoshop:Source>https:www/leadsmedia.ae
          </photoshop:Source>
          <photoshop:Headline>Shopify agency based in Dubai.
          </photoshop:Headline>
          <photoshop:City>Dubai
          </photoshop:City>
          <photoshop:State>Dubai
          </photoshop:State>
          <photoshop:Country>United Arab Emirates
          </photoshop:Country>
          <photoshop:DateCreated>2023-01-01
          </photoshop:DateCreated>
          <xmpRights:Marked>True
          </xmpRights:Marked>
          <xmpRights:WebStatement>https://www.leadsmedia.ae/legal
          </xmpRights:WebStatement>
          <xmpRights:UsageTerms>
            <rdf:Alt>
              <rdf:li>If you think that the least you can do is thank to Leadsmedia for the resources you&amp;amp;apos;re using without consent, this is one way of doing it: you can include an attribution line, such as “Image Courtesy: Leadsmedia.AE ” on the final product or design, whether it’s a digital or a physical product.
              </rdf:li>
            </rdf:Alt>
          </xmpRights:UsageTerms>
          <Iptc4xmpCore:CountryCode>971
          </Iptc4xmpCore:CountryCode>
          <Iptc4xmpCore:Location>Dubai Marina
          </Iptc4xmpCore:Location>
          <Iptc4xmpCore:CreatorContactInfo rdf:parseType="Resource">
            <Iptc4xmpCore:CiUrlWork>https://www.leadsmedia.ae
            </Iptc4xmpCore:CiUrlWork>
            <Iptc4xmpCore:CiEmailWork>hello@leadsmedia.ae
            </Iptc4xmpCore:CiEmailWork>
            <Iptc4xmpCore:CiTelWork>+971 521887960
            </Iptc4xmpCore:CiTelWork>
            <Iptc4xmpCore:CiAdrCtry>United Arab Emirates
            </Iptc4xmpCore:CiAdrCtry>
            <Iptc4xmpCore:CiAdrPcode>505000
            </Iptc4xmpCore:CiAdrPcode>
            <Iptc4xmpCore:CiAdrRegion>Dubai
            </Iptc4xmpCore:CiAdrRegion>
            <Iptc4xmpCore:CiAdrCity>Dubai
            </Iptc4xmpCore:CiAdrCity>
            <Iptc4xmpCore:CiAdrExtadr>Office No.112, 3rd Floor, R364 Building, Zaa&amp;amp;apos;beel St., Al Karama, Dubai, UAE
            </Iptc4xmpCore:CiAdrExtadr>
          </Iptc4xmpCore:CreatorContactInfo>
          <Iptc4xmpCore:AltTextAccessibility>
            <rdf:Alt>
              <rdf:li>Leadsmedia is an expert Shopify agency based in Dubai and is proven by the immense growth of its in-house brand Travelmojo®.
              </rdf:li>
            </rdf:Alt>
          </Iptc4xmpCore:AltTextAccessibility>
          <Iptc4xmpCore:ExtDescrAccessibility>
            <rdf:Alt>
              <rdf:li>Leadsmedia.AE is an eCommerce agency specializing in Shopify services for Dubai’s Small and Medium Businesses. Backed by expertise from developing an in-house D2C brand, we provide personalized 1-on-1 support to ensure your online store thrives. Whether launching a new business or scaling an existing one, our tailored solutions drive success.
              </rdf:li>
            </rdf:Alt>
          </Iptc4xmpCore:ExtDescrAccessibility>
          <Iptc4xmpExt:DigitalSourceType>http://cv.iptc.org/newscodes/digitalsourcetype/digitalCapture
          </Iptc4xmpExt:DigitalSourceType>
          <Iptc4xmpExt:PersonInImage>
            <rdf:Bag>
              <rdf:li>Safath Al Salam
              </rdf:li>
            </rdf:Bag>
          </Iptc4xmpExt:PersonInImage>
          <Iptc4xmpExt:LocationCreated>
            <rdf:Bag>
              <rdf:li rdf:parseType="Resource">
                <Iptc4xmpExt:Sublocation>Dubai Marina
                </Iptc4xmpExt:Sublocation>
                <Iptc4xmpExt:City>Dubai
                </Iptc4xmpExt:City>
                <Iptc4xmpExt:ProvinceState>Dubai
                </Iptc4xmpExt:ProvinceState>
                <Iptc4xmpExt:CountryName>United Arab Emirates
                </Iptc4xmpExt:CountryName>
                <Iptc4xmpExt:CountryCode>ISO 3166-2:AE
                </Iptc4xmpExt:CountryCode>
                <Iptc4xmpExt:WorldRegion>ISO 3166-2:AE
                </Iptc4xmpExt:WorldRegion>
              </rdf:li>
            </rdf:Bag>
          </Iptc4xmpExt:LocationCreated>
          <Iptc4xmpExt:OrganisationInImageName>
            <rdf:Bag>
              <rdf:li>LeadsMedia LLC
              </rdf:li>
            </rdf:Bag>
          </Iptc4xmpExt:OrganisationInImageName>
          <Iptc4xmpExt:ModelAge>
            <rdf:Bag>
              <rdf:li>30
              </rdf:li>
            </rdf:Bag>
          </Iptc4xmpExt:ModelAge>
          <Iptc4xmpExt:OrganisationInImageCode>
            <rdf:Bag>
              <rdf:li>Leadsmedia.AE
              </rdf:li>
            </rdf:Bag>
          </Iptc4xmpExt:OrganisationInImageCode>
          <plus:ModelReleaseStatus>http://ns.useplus.org/ldf/vocab/MR-LMR
          </plus:ModelReleaseStatus>
          <plus:PropertyReleaseStatus>http://ns.useplus.org/ldf/vocab/PR-LPR
          </plus:PropertyReleaseStatus>
          <plus:MinorModelAgeDisclosure>http://ns.useplus.org/ldf/vocab/AG-UNK
          </plus:MinorModelAgeDisclosure>
          <plus:CopyrightOwner>
            <rdf:Seq>
              <rdf:li rdf:parseType="Resource">
                <plus:CopyrightOwnerName>Leadsmedia.AE
                </plus:CopyrightOwnerName>
              </rdf:li>
            </rdf:Seq>
          </plus:CopyrightOwner>
          <xmpDM:artist>Safath Al Salam
          </xmpDM:artist>
          <xmpDM:album>Leadsmedia Dubai - AI-Driven Marketing Solutions
          </xmpDM:album>
          <xmpTPg:NPages>1
          </xmpTPg:NPages>
          <xmpTPg:HasVisibleTransparency>False
          </xmpTPg:HasVisibleTransparency>
          <xmpTPg:HasVisibleOverprint>False
          </xmpTPg:HasVisibleOverprint>
          <xmpTPg:MaxPageSize rdf:parseType="Resource">
            <stDim:w>500.000000
            </stDim:w>
            <stDim:h>250.000000
            </stDim:h>
            <stDim:unit>Points
            </stDim:unit>
          </xmpTPg:MaxPageSize>
          <xmpTPg:PlateNames>
            <rdf:Seq>
              <rdf:li>Cyan
              </rdf:li>
              <rdf:li>Magenta
              </rdf:li>
              <rdf:li>Yellow
              </rdf:li>
              <rdf:li>Black
              </rdf:li>
            </rdf:Seq>
          </xmpTPg:PlateNames>
          <xmpTPg:SwatchGroups>
            <rdf:Seq>
              <rdf:li rdf:parseType="Resource">
                <xmpG:groupName>Default Swatch Group
                </xmpG:groupName>
                <xmpG:groupType>0
                </xmpG:groupType>
              </rdf:li>
            </rdf:Seq>
          </xmpTPg:SwatchGroups>
          <xmpMM:DocumentID>xmp.did:71dc14dc-b350-4382-9a43-0c9ec18bc526
          </xmpMM:DocumentID>
          <xmpMM:InstanceID>xmp.iid:71dc14dc-b350-4382-9a43-0c9ec18bc526
          </xmpMM:InstanceID>
          <xmpMM:OriginalDocumentID>xmp.did:9540533b-797a-4336-b9aa-de662adee3c2
          </xmpMM:OriginalDocumentID>
          <xmpMM:RenditionClass>proof:pdf
          </xmpMM:RenditionClass>
          <xmpMM:DerivedFrom rdf:parseType="Resource">
            <stRef:instanceID>xmp.iid:60db249b-4d3f-42c8-9ae1-2d6dca40ef65
            </stRef:instanceID>
            <stRef:documentID>xmp.did:60db249b-4d3f-42c8-9ae1-2d6dca40ef65
            </stRef:documentID>
            <stRef:originalDocumentID>xmp.did:9540533b-797a-4336-b9aa-de662adee3c2
            </stRef:originalDocumentID>
            <stRef:renditionClass>proof:pdf
            </stRef:renditionClass>
          </xmpMM:DerivedFrom>
          <xmpMM:History>
            <rdf:Seq>
              <rdf:li rdf:parseType="Resource">
                <stEvt:action>saved
                </stEvt:action>
                <stEvt:instanceID>xmp.iid:9540533b-797a-4336-b9aa-de662adee3c2
                </stEvt:instanceID>
                <stEvt:when>2025-01-21T20:41:09+04:00
                </stEvt:when>
                <stEvt:softwareAgent>Adobe Illustrator 29.2 (Macintosh)
                </stEvt:softwareAgent>
                <stEvt:changed>/
                </stEvt:changed>
              </rdf:li>
              <rdf:li rdf:parseType="Resource">
                <stEvt:action>saved
                </stEvt:action>
                <stEvt:instanceID>xmp.iid:60db249b-4d3f-42c8-9ae1-2d6dca40ef65
                </stEvt:instanceID>
                <stEvt:when>2025-01-22T02:24:00+04:00
                </stEvt:when>
                <stEvt:softwareAgent>Adobe Illustrator 29.2 (Macintosh)
                </stEvt:softwareAgent>
                <stEvt:changed>/
                </stEvt:changed>
              </rdf:li>
              <rdf:li rdf:parseType="Resource">
                <stEvt:action>converted
                </stEvt:action>
                <stEvt:parameters>from application/postscript to application/vnd.adobe.illustrator
                </stEvt:parameters>
              </rdf:li>
              <rdf:li rdf:parseType="Resource">
                <stEvt:action>saved
                </stEvt:action>
                <stEvt:instanceID>xmp.iid:71dc14dc-b350-4382-9a43-0c9ec18bc526
                </stEvt:instanceID>
                <stEvt:when>2025-01-22T02:25:34+04:00
                </stEvt:when>
                <stEvt:softwareAgent>Adobe Illustrator 29.2 (Macintosh)
                </stEvt:softwareAgent>
                <stEvt:changed>/
                </stEvt:changed>
              </rdf:li>
            </rdf:Seq>
          </xmpMM:History>
          <illustrator:CreatorSubTool>AIRobin
          </illustrator:CreatorSubTool>
          <pdf:Producer>Adobe PDF library 17.00
          </pdf:Producer>
        </rdf:Description>
      </rdf:RDF>
    </x:xmpmeta>
    <sfw xmlns="http://ns.adobe.com/SaveForWeb/1.0/">
      <slices/>
      <sliceSourceBounds x="0" y="0" width="500" height="250" bottomLeftOrigin="true"/>
    </sfw>
  </metadata>
  <metadata><?xpacket begin="﻿" id="W5M0MpCehiHzreSzNTczkc9d"?>
<x:xmpmeta xmlns:x="adobe:ns:meta/" x:xmptk="Adobe XMP Core 9.1-c002 79.b7c64cc, 2024/07/16-07:59:40        ">
   <rdf:RDF xmlns:rdf="http://www.w3.org/1999/02/22-rdf-syntax-ns#">
      <rdf:Description rdf:about=""
            xmlns:xmp="http://ns.adobe.com/xap/1.0/"
            xmlns:xmpGImg="http://ns.adobe.com/xap/1.0/g/img/"
            xmlns:xmpTPg="http://ns.adobe.com/xap/1.0/t/pg/"
            xmlns:stDim="http://ns.adobe.com/xap/1.0/sType/Dimensions#"
            xmlns:xmpG="http://ns.adobe.com/xap/1.0/g/"
            xmlns:dc="http://purl.org/dc/elements/1.1/">
         <xmp:CreatorTool>Adobe Illustrator 29.2 (Macintosh)</xmp:CreatorTool>
         <xmp:CreateDate>2025-01-22T02:30:44+04:00</xmp:CreateDate>
         <xmp:Thumbnails>
            <rdf:Alt>
               <rdf:li rdf:parseType="Resource">
                  <xmpGImg:width>256</xmpGImg:width>
                  <xmpGImg:height>128</xmpGImg:height>
                  <xmpGImg:format>JPEG</xmpGImg:format>
                  <xmpGImg:image>/9j/4AAQSkZJRgABAgEAAAAAAAD/7QAsUGhvdG9zaG9wIDMuMAA4QklNA+0AAAAAABAAAAAAAAEA&#xA;AQAAAAAAAQAB/+4ADkFkb2JlAGTAAAAAAf/bAIQABgQEBAUEBgUFBgkGBQYJCwgGBggLDAoKCwoK&#xA;DBAMDAwMDAwQDA4PEA8ODBMTFBQTExwbGxscHx8fHx8fHx8fHwEHBwcNDA0YEBAYGhURFRofHx8f&#xA;Hx8fHx8fHx8fHx8fHx8fHx8fHx8fHx8fHx8fHx8fHx8fHx8fHx8fHx8fHx8f/8AAEQgAgAEAAwER&#xA;AAIRAQMRAf/EAaIAAAAHAQEBAQEAAAAAAAAAAAQFAwIGAQAHCAkKCwEAAgIDAQEBAQEAAAAAAAAA&#xA;AQACAwQFBgcICQoLEAACAQMDAgQCBgcDBAIGAnMBAgMRBAAFIRIxQVEGE2EicYEUMpGhBxWxQiPB&#xA;UtHhMxZi8CRygvElQzRTkqKyY3PCNUQnk6OzNhdUZHTD0uIIJoMJChgZhJRFRqS0VtNVKBry4/PE&#xA;1OT0ZXWFlaW1xdXl9WZ2hpamtsbW5vY3R1dnd4eXp7fH1+f3OEhYaHiImKi4yNjo+Ck5SVlpeYmZ&#xA;qbnJ2en5KjpKWmp6ipqqusra6voRAAICAQIDBQUEBQYECAMDbQEAAhEDBCESMUEFURNhIgZxgZEy&#xA;obHwFMHR4SNCFVJicvEzJDRDghaSUyWiY7LCB3PSNeJEgxdUkwgJChgZJjZFGidkdFU38qOzwygp&#xA;0+PzhJSktMTU5PRldYWVpbXF1eX1RlZmdoaWprbG1ub2R1dnd4eXp7fH1+f3OEhYaHiImKi4yNjo&#xA;+DlJWWl5iZmpucnZ6fkqOkpaanqKmqq6ytrq+v/aAAwDAQACEQMRAD8A9U4q7FXYq7FXYq7FXYq7&#xA;FXYq7FXYq7FXYq7FXYq7FXYq7FXYq7FXYq7FXYq7FXYq7FXYq7FXYq7FXYq7FXYq7FXYq7FXYq7F&#xA;XYq7FXYq7FXYq7FXYq7FXYq7FXYq7FXYq7FXYq7FXYq7FXYq7FXYq7FXYq7FXYq7FXYq7FXYq7FX&#xA;Yq7FXYq7FXYq7FXYq7FXYq7FXYq7FXYq7FXYq7FXYq7FXYq7FXYq7FXYq7FXYq7FXYq7FXYq7FXY&#xA;q7FXYq7FXYq7FXYq7FXYq7FXYq7FXYq7FXYq7FXYq7FXYq7FXYq7FXYq7FXYq7FXYq7FXYq7FXYq&#xA;7FXYq7FXYq7FXYq7FXYq7FXYq7FXYq7FXYq7FXYq7FXYq7FXYq7FXYq7FXYq7FXYq7FXYq7FXYq7&#xA;FXYq7FXYq7FXYq7FXYq7FXYq7FXYq7FXYq7FXYq7FXYq7FXYq7FXYq7FXYq7FXYq7FXYq7FXYq7F&#xA;XYq7FXYq7FXYq+efNf8AzkP510j8y7ryvbWWmvp8F/HaJLJFOZjG7KCSyzqvL4v5cmI7It9DZBLs&#xA;VSvWvNfljQ+P6Z1az05nBZFup44WYD+VXYFvoxpVTR/MOga1E02j6la6lEhAke0mjmCk9AxjLUPz&#xA;xVGXN1bWsD3F1MkFvGKyTSsERR4szUAxVIo/zF/L6SQRR+Z9JeRjRUW+tixPgAHw0VZCCCAQag7g&#xA;jAqT6z5y8paJKIdY1qx0+dgCsNzcRRSEHuEZg1PemGleZfnl+ces+UbTy7eeVZrG9tNYF2zXDD6x&#xA;GyweiEMbxuq0/etXrhiEEs2/KbzXqXmr8vdL8waqIkvbz6wZ/RUpGPSuZYloCWp8MYrvgI3SETP+&#xA;Z35c29x9Xm8zaYkwNGU3cOxrSjHlQfTjRVkFne2V9bJc2VxHdW0grHPC6yIw9mUkHArwT8vfz086&#xA;+YPzYg8q36WY0yS4vYmaKJ1l428Mzp8Rdh1iFdsmY7It7OnnfyW9/wDo9Nf01r8t6YtFu4DNz/l9&#xA;MPyr7UyNJRmra7omjwrPq+oW2nQOeKS3c0cCE+AaQqMCr9L1jSNWtvrWlX1vqFryK+vaypNHyHUc&#xA;oywriq7UNT03TbZrrUbuGytV2ae4kWKMfNnIGKpZpfnryVq10LTTNe0+9uiSFt4LqGSRqdSqKxYj&#xA;3GGlTzAqTat518naPcC21bXLCwuTT9xc3MUUnxdCUZgwHvhpXl/55/nLr/k99Ck8sSWV3Z6rDNKZ&#xA;5FM6MIygQxvG6rQ8zhiLQSxXzn/zkJ590fSvK91aR2Jl1jS1vbv1IXYCUzSR/BSQUWiDCIrb3vyh&#xA;q8+q+T9F1m9KJcX+n2t5clfhjDzQLI9Kk0WrHvkSlDv+Yn5fxzGF/M2kpMDxMbX1sGr4UL1xoqnl&#xA;vc29zAk9tKk8EgrHLGwdGHiGWoOBVTFXYq7FXYq7FXYq+KPzF/8AJ76h/wBtiH/iaZaOTF9r5UyY&#xA;l+a3nKTyf5E1PXLcK17EqxWStuPXmYRoSD1CcuZHcDCBal8vfll+Wl7+Z+panq+va4bSCF1+sXkx&#xA;EtxPNJvxXmygBV6k9NgB4WE0xQfmfRPMH5Qee7WXSNWW5IRbmzvYfhWaLkQ0M8asw6rRlqQRQ/JG&#xA;6s5/OC2/M38yb7S7nQ9Hu5vK7WdrcWaIR6LzXMSyyO1StWQv6dT04mnU4BQUsf8AzI/I7Q/JflZt&#xA;SbzXBd6tE0aNpfpqjSM7AOI6SO/wD4viXoO2Ila0mv5R/mlrXl78qPOLNOZm0g2iaIsh5+nNfmWO&#xA;ihv2EMfqcenXxxI3UMU/LL8qvMH5o6pqN5NqJtreBg99qk6tcSPNLUhVUsnNjQliWFPpwk0tIL81&#xA;vy68weQdQtNFvr36/pUgkudMnUMkZZ+KTfuiW4P8CcqE7cd8QbUsl8z+Z9V07/nHvyPotnK0NtrE&#xA;mqNfMhILpbXr0iNP2WM1SPbABuqj+Xf5Xflt5q8srLe+cE03zNJ6gGnymKNI2ViEHGXi0vJQGqjd&#xA;/bEkqzv8hfIP5u+TvNqjUdPMXli/jkW9YXdrLEGCFoZljjldiSwC1C9G3wSIKQxm5/NT80/PHma4&#xA;8gW9/b2sGqXUtj6yRCN1gR2L1cHl/doa069O+GgEWxv83fyWu/y7h065OqLqlrfs8fMQm3aOSMBq&#xA;FectQQdjXthErUhkXkb8nfNH5qaCfM2t+YniMa/UdMWaMzlktlCDkeaBEqKbAkmrHfqCaWkk/IbX&#xA;Na8vfmtY6SkzLb3s8ljqNqrExuQrKrU6VRxUH+uGXJQp67rWvfnD+Z0Wn/XRbafLNJHpqymkFtaR&#xA;hnMhWq1dkWp7s22wpR5BUw/NP8jIvJOiRa9pOurqcMUkcd1HRYpY2bZZU4u1V57U6io64BK1pmei&#xA;fntrCfkTqF9cTmTzNYzppNtdtu7mdS0U7Hu6RLJ16lanqcHDum3nf5V/kzrn5lNf6nNqQsbGCXhN&#xA;fyo1zLLcMObALzTkQGBZmfuOuSJpACT/AJoeSfMfkjVbfy3ql39csIUe50qVaiIxztSQqjV4EtH8&#xA;S167964g2rNdf/M3zZ5T8peSLLRpoI4J9GWaQTW8M55/WJV2aRWI2XpgpWZfmv8A8rO82fl55OtN&#xA;Bsbi7t9T023vtcktFVFklkhjZIyqlQEqWbjSnTwwCrSWGXX5BaNpPkSTWfMXmaLSvMC2rXI0mX0g&#xA;FkClktyOfqM7bA8RsT0NNzxIpW/5xU8x6lb+d7jQvXdtMvrSWU2xJKLPEVKyAdjx5KadfoxkFD6w&#xA;ytk7FXYq7FXYq7FXxP8AmQ6R/npqUkjBETV4md2NAAGQkknLRyYvr3/HHkr/AKmDTf8ApMg/5ryu&#xA;mTzT/nIjW9C1n8r76HStUs76e3nt55Ibe4ilk9NZAjMERmNAXFcMeaC8a/Jf8p/LX5gw6hFeazLY&#xA;apZOrJaRrGxeBh/eDkamjAhqdNvHJSNIAT7zT+UP5MeVtU/Reu+eLq1vwiytAto85VWrx5GFJApN&#xA;OhNab98QStMU84+ZdX1PVNN8iaHq0zeWbMW1hpnPnbrP63Eie4SituZOjL8K9q1qQFZl5+/5x88s&#xA;+SPIF/rl/rc13q0Sxx2cYVIIXnkkVSoT947UXkftdqnAJWtPPfLVjc3P5V+dZYQStneaNPOB/JW7&#xA;i3/2Ugwnmr2P/nEfXtOGl61oLyqmofWFvIomIDSRNGI2KDvwKfF8xkZpCVf85b+YNKub/QtFt5Fl&#xA;v7AXE94FIJiWf0xGjU6M3plqeFPHGClR0vW/yrP5J+VfL/nlbpZJkvbqwurSMmSI/X7hCUk3Wu26&#xA;kEdKjph3tCAX/nGeXXNEt9e8l+YYNR0+8T1baK9ia2kABIKF0Mo5ggg1Vd8eJaSr8gfOXmbQfzEs&#xA;PLguXfS76d7W809n5xK4Vv3ke5VWVl6r1GMhsoQv5Vf+T/sf+2le/wDEJsJ5KHqP/OXf/KOeX/8A&#xA;mMl/5NZGCSy3/nGv/wAlHpf/ABmuv+oh8Euah86eRITP+d1pCDxMuq3CcutOTSCuTPJCS+RPKula&#xA;z52t/LnmC9fSY5pJLd7gBapcICFRuW3xOvH54kq9d82f848flr5S09NQ8w+brqxtZZBFExtxIzOQ&#xA;TRUiDudhvttkRIppjHmvyn5PtPyjvr3yXrVxrthHrNm2oyy28lusRS3njWnqRoW3uF6eOEHdD0r/&#xA;AJxN1/TpvKGo6GJFXUbS9a5aEkBmhmjRVcDvRoyD4beOCaQwn/nLDX9Kv/NWlaZaSrNdaXbyi+KE&#xA;MEeZ1KxsR+0oSpHvhggsK/M3/lH/ACF/2wV/6iZsIVlH5tfmD5htPKnknyrpt3LZ2B8uaddXvosY&#xA;2meWAKqOympRVj6dCTvWgwAKU40b/nHLy/B5C/xb5l1uVa6edRNvb+mkScovUjRpW9QvWq14gVOw&#xA;8ceJaY1/zjB/5NW3/wCYO5/4iMZclD7Fytk7FXYq7FXYq7FXz558/wCcZ9d8y+cNV12DWrW3h1Cc&#xA;zJC8chZQQBQkbdsmJIpIf+hRPMf/AFf7P/kVLh40Uyr8tv8AnG678s+YZL7WdQtdT02e0ns7myWN&#xA;xzSdeJBLdqYDJNJD5i/5xR1yDVjdeT9ahituRaJL5pYpoa9llgSTn8+K48a0jfJX/OK08OrR6j50&#xA;1OG+jjf1GsLQyOsxG49WaURtx8QF38cTJaTL82P+cbrjzN5gl17y1fW9lcXQX61ZXIdIeaKE5xvE&#xA;rlaqoqvDrvXfESUhLdP/AOcYvMuoWFx/i7zM15eRQPHpMMUk88EUpFEZ3mCNwFB8CqPntQvEtMl/&#xA;Kn8jNV8nnWrHV76z1XQtdthb31osciuSnIIQxNAOMr179KdMBlagMF1//nEzzFFqjy+WdZtTYli0&#xA;IvmlhnjB6LyhjlD0/m+H5YeNaRM3/OJF+2k2wTXYjrDSO99K6OYeBA4JGPtE15FmbrtsO7xrTNLj&#xA;/nHqw1L8sdH8qanfBNX0U3LWerQISo+szvMyNGxUshDLUVBqNjg4t1p53H/zjD+a1kJINO8w2MVo&#xA;5+ytzeQ8q03ZEhZe3iclxBFPQvyh/wCcfLXyVqg17Vr1NR1mNWS0SJSsEHMFXYFvidypIrQUBO3f&#xA;ImVpAS3yf/zjxrOg/mPb+bJtXtpreG6nuTbJHIHImVwBU7bephMtlpmX5x/lXcfmHpmnWcOoppxs&#xA;ZnmLvEZeXNONKBkpkQaUhOPyw8ky+SvJ1r5elu1vXtnmc3CoYwfVkZ6cSW6cqdcSbSHm/lr/AJxw&#xA;vdH8/wBt5qbXY5o4L17w2gt2ViHZjx5+of5utMkZbIpX/NX/AJxvsPNWqTa7oF2mmardEveW8yk2&#xA;00h6yVSrRu37VAQTvStSQJKQwm0/5xU8+Xt3CuveYLMWcQCCSF7i6kVB+yiSxwqP+CyXGinvGk/l&#xA;r5T03yQ3k2K09TRpo2juhJQyTO+7Su4A/eVAII+zQUpQZC2TwjVv+cTPNUGps/l/W7R7LkTFJdma&#xA;C4RT2PoxyqxptUEV8Bk+NFI26/5xIuzpViltrcX6UDStqU8kb+kwbh6SRKN/go9WPWuDjWk181/8&#xA;4265rem+XLSLWbaFtE04WErNHIRIwleTktOg+PviJLSbeff+ceF8y+XPL8VtqCW3mDQtNttMa4dW&#xA;NvcR28YUcgPiSjcirAHrQjpQCS0x7yx/zjP5slktrTzn5j+seX7Qgx6TZT3EiMB0UessSxD/AFVJ&#xA;8KdcJktJ3+W3/OPOreSfOFtr8OvQXUUQkimtmtWUvFItCA3q/C3Qg0wGVrT27IpdirsVdirsVdir&#xA;sVdirsVdirsVdirsVdirsVdirsVdirsVdirsVdirsVdirsVdirsVdirsVdirsVdirsVdirsVdirs&#xA;VdirsVdirsVdirsVdirsVdirsVdirsVdirsVdirsVdirsVdirsVdirsVdirsVdirsVdirsVdirsV&#xA;dirsVdirsVdirsVdirsVdirsVdirsVdirsVdirsVdirsVdirsVdirsVdirsVdirsVdirsVdirsVd&#xA;irsVdirsVdirsVdirsVdirsVdirsVdirsVdirsVdirsVdirsVdirsVdirsVdirsVdirsVdirsVdi&#xA;rsVdirsVdirsVdirsVdirsVdirsVdirsVdirsVdirsVdirsVdirsVdirsVdirsVdirsVdirsVdir&#xA;sVdirsVdirsVdirsVdirsVdirsVdirsVdirsVdirsVdirsVdirsVdirsVdirsVdirsVdirsVdirs&#xA;VdirsVdirsVdirsVf//Z</xmpGImg:image>
               </rdf:li>
            </rdf:Alt>
         </xmp:Thumbnails>
         <xmpTPg:MaxPageSize rdf:parseType="Resource">
            <stDim:w>500.000000</stDim:w>
            <stDim:h>250.000000</stDim:h>
            <stDim:unit>Points</stDim:unit>
         </xmpTPg:MaxPageSize>
         <xmpTPg:NPages>1</xmpTPg:NPages>
         <xmpTPg:HasVisibleTransparency>False</xmpTPg:HasVisibleTransparency>
         <xmpTPg:HasVisibleOverprint>False</xmpTPg:HasVisibleOverprint>
         <xmpTPg:PlateNames>
            <rdf:Seq>
               <rdf:li>Cyan</rdf:li>
               <rdf:li>Magenta</rdf:li>
               <rdf:li>Yellow</rdf:li>
               <rdf:li>Black</rdf:li>
            </rdf:Seq>
         </xmpTPg:PlateNames>
         <xmpTPg:SwatchGroups>
            <rdf:Seq>
               <rdf:li rdf:parseType="Resource">
                  <xmpG:groupName>Default Swatch Group</xmpG:groupName>
                  <xmpG:groupType>0</xmpG:groupType>
               </rdf:li>
            </rdf:Seq>
         </xmpTPg:SwatchGroups>
         <dc:format>image/svg+xml</dc:format>
      </rdf:Description>
   </rdf:RDF>
</x:xmpmeta>
                                                                                                    
                                                                                                    
                                                                                                    
                                                                                                    
                                                                                                    
                                                                                                    
                                                                                                    
                                                                                                    
                                                                                                    
                                                                                                    
                                                                                                    
                                                                                                    
                                                                                                    
                                                                                                    
                                                                                                    
                                                                                                    
                                                                                                    
                                                                                                    
                                                                                                    
                                                                                                    
                           
<?xpacket end="w"?>
  </metadata>
</svg>